<svg width="40" height="37" viewBox="0 0 40 37" fill="none" xmlns="http://www.w3.org/2000/svg">
<path d="M16.0392 6.36753C13.5915 7.11883 11.5077 8.37098 9.7378 10.1497C8.51392 11.3826 7.57247 12.6925 6.81931 14.1951L6.43018 14.9785H9.59972H12.7755L12.8006 14.8308C13.5036 11.3697 14.8216 8.39025 16.397 6.69502C16.692 6.37396 16.9054 6.1171 16.8803 6.12352C16.8489 6.12352 16.4723 6.23269 16.0392 6.36753Z" fill="#2A69F6"/>
<path d="M24.0979 6.69502C25.6669 8.38383 26.9787 11.3633 27.6879 14.8308L27.713 14.9785H30.8826H34.0521L33.732 14.33C32.5521 11.9155 30.7382 9.80936 28.5792 8.3453C27.2549 7.43989 25.849 6.77208 24.3677 6.33543C23.9598 6.21342 23.6083 6.1171 23.5895 6.1171C23.5706 6.1171 23.7966 6.38038 24.0979 6.69502Z" fill="#2A69F6"/>
<path d="M19.4912 6.90692C17.7463 7.51053 16.0329 10.246 15.0977 13.8933C14.9597 14.4391 14.8467 14.9015 14.8467 14.9271C14.8467 14.9593 17.2756 14.9785 20.2443 14.9785C23.213 14.9785 25.642 14.9593 25.642 14.9271C25.642 14.9015 25.529 14.4391 25.3909 13.8933C24.3051 9.66167 22.2025 6.75281 20.2192 6.75923C20.0435 6.75923 19.7171 6.82987 19.4912 6.90692Z" fill="#2A69F6"/>
<path d="M6.75662 27.9559C7.47212 29.42 8.3508 30.685 9.47427 31.8601C10.3467 32.7719 10.9492 33.2856 11.9283 33.9535C13.1961 34.8203 14.6271 35.501 16.0268 35.9184C16.3971 36.0211 16.7548 36.1303 16.8238 36.1495C16.8929 36.1688 16.7109 35.9312 16.4033 35.5973C14.8091 33.8892 13.5539 31.0446 12.8007 27.4487L12.7756 27.3074H9.60607H6.43652L6.75662 27.9559Z" fill="#2A69F6"/>
<path d="M14.8467 27.3523C14.8467 27.3844 14.9597 27.8467 15.0977 28.3925C16.1773 32.6049 18.2798 35.5266 20.2443 35.5266C22.2716 35.5266 24.3804 32.5086 25.4788 28.0329C25.5666 27.6733 25.642 27.3651 25.642 27.3459C25.642 27.3266 23.213 27.3073 20.2443 27.3073C17.2756 27.3073 14.8467 27.3266 14.8467 27.3523Z" fill="#2A69F6"/>
<path d="M27.6879 27.4486C26.9348 31.0317 25.6732 33.8891 24.0979 35.5908C23.7966 35.9054 23.5706 36.1687 23.5895 36.1687C23.6083 36.1687 23.9661 36.066 24.3803 35.944C26.1439 35.4238 27.8448 34.5505 29.4076 33.3497C29.9913 32.9067 31.2905 31.616 31.8366 30.9546C32.4203 30.2354 33.2236 28.9833 33.6693 28.0843L34.0584 27.3073H30.8888H27.713L27.6879 27.4486Z" fill="#2A69F6"/>
<g filter="url(#filter0_d_5237_6797)">
<rect x="5.20914" y="15.5082" width="29.5822" height="11.2694" rx="2.34779" stroke="#0B52F4" stroke-width="1.87823" shape-rendering="crispEdges"/>
</g>
<g clip-path="url(#clip0_5237_6797)">
<path d="M14.2572 18.9021C13.9508 18.94 13.6664 19.0588 13.4164 19.2543C13.3284 19.323 13.1752 19.4797 13.11 19.5677C12.7922 19.9991 12.6953 20.5159 12.83 21.068C12.9735 21.6517 13.375 22.3182 13.9781 22.9732C14.1427 23.1519 14.369 23.3703 14.4042 23.3852C14.4412 23.4002 14.4791 23.4002 14.5187 23.3835C14.5557 23.3676 14.8867 23.0392 15.0328 22.8728C15.5866 22.2433 15.9467 21.6323 16.0841 21.0891C16.2258 20.5309 16.129 19.9974 15.8076 19.5668C15.7469 19.485 15.6025 19.3344 15.5206 19.2684C15.1667 18.9796 14.7089 18.8466 14.2572 18.9021ZM14.5565 19.6461C14.6657 19.6584 14.7582 19.6848 14.8515 19.7288C15.061 19.8274 15.2116 19.978 15.3093 20.1858C15.4783 20.5441 15.3991 20.9729 15.113 21.2502C14.8295 21.524 14.4174 21.5953 14.067 21.4298C13.9605 21.3787 13.8883 21.3294 13.8064 21.2502C13.5203 20.9729 13.441 20.5441 13.6101 20.1858C13.765 19.8583 14.0838 19.6496 14.4465 19.6381C14.4659 19.6381 14.5152 19.6417 14.5565 19.6461Z" fill="#0B52F4"/>
</g>
<g clip-path="url(#clip1_5237_6797)">
<path d="M25.3383 18.9021C25.0319 18.94 24.7475 19.0588 24.4974 19.2543C24.4094 19.323 24.2562 19.4797 24.1911 19.5677C23.8732 19.9991 23.7764 20.5159 23.9111 21.068C24.0546 21.6517 24.4561 22.3182 25.0592 22.9732C25.2238 23.1519 25.4501 23.3703 25.4853 23.3852C25.5223 23.4002 25.5601 23.4002 25.5997 23.3835C25.6367 23.3676 25.9678 23.0392 26.1139 22.8728C26.6677 22.2433 27.0278 21.6323 27.1651 21.0891C27.3069 20.5309 27.21 19.9974 26.8887 19.5668C26.8279 19.485 26.6835 19.3344 26.6017 19.2684C26.2477 18.9796 25.7899 18.8466 25.3383 18.9021ZM25.6376 19.6461C25.7468 19.6584 25.8392 19.6848 25.9325 19.7288C26.1421 19.8274 26.2926 19.978 26.3904 20.1858C26.5594 20.5441 26.4802 20.9729 26.194 21.2502C25.9105 21.524 25.4985 21.5953 25.1481 21.4298C25.0415 21.3787 24.9694 21.3294 24.8875 21.2502C24.6013 20.9729 24.5221 20.5441 24.6911 20.1858C24.8461 19.8583 25.1648 19.6496 25.5275 19.6381C25.5469 19.6381 25.5962 19.6417 25.6376 19.6461Z" fill="#0B52F4"/>
</g>
<path d="M0.419434 19.0767C0.419434 18.0394 1.26035 17.1985 2.29767 17.1985H3.80026V24.7114H2.29767C1.26035 24.7114 0.419434 23.8705 0.419434 22.8332V19.0767Z" fill="#2A69F6"/>
<path d="M36.1997 17.1985H37.7023C38.7396 17.1985 39.5805 18.0394 39.5805 19.0767V22.8332C39.5805 23.8705 38.7396 24.7114 37.7023 24.7114H36.1997V17.1985Z" fill="#2A69F6"/>
<path d="M19.9115 0.873419C19.5284 0.920755 19.1728 1.06937 18.8602 1.31376C18.7501 1.39962 18.5586 1.59557 18.4771 1.70566C18.0797 2.24507 17.9586 2.89126 18.127 3.58149C18.3065 4.31135 18.8085 5.14468 19.5625 5.96371C19.7684 6.18718 20.0513 6.46019 20.0953 6.4789C20.1416 6.49762 20.1889 6.49762 20.2385 6.4767C20.2847 6.45689 20.6986 6.04627 20.8813 5.83821C21.5738 5.05111 22.024 4.28713 22.1957 3.60791C22.373 2.90998 22.2519 2.24287 21.8501 1.70455C21.7741 1.60218 21.5936 1.41393 21.4912 1.33137C21.0487 0.970293 20.4762 0.804066 19.9115 0.873419ZM20.2858 1.80363C20.4223 1.81904 20.5379 1.85207 20.6546 1.90711C20.9166 2.0304 21.1048 2.21865 21.227 2.47845C21.4384 2.92649 21.3393 3.4626 20.9815 3.80936C20.627 4.15172 20.1119 4.24089 19.6737 4.03393C19.5405 3.97009 19.4503 3.90844 19.3479 3.80936C18.9901 3.4626 18.891 2.92649 19.1024 2.47845C19.2961 2.06893 19.6946 1.80803 20.1482 1.79372C20.1724 1.79372 20.234 1.79813 20.2858 1.80363Z" fill="#0A4CE1"/>
<defs>
<filter id="filter0_d_5237_6797" x="4.0822" y="14.5691" width="31.8361" height="13.5234" filterUnits="userSpaceOnUse" color-interpolation-filters="sRGB">
<feFlood flood-opacity="0" result="BackgroundImageFix"/>
<feColorMatrix in="SourceAlpha" type="matrix" values="0 0 0 0 0 0 0 0 0 0 0 0 0 0 0 0 0 0 127 0" result="hardAlpha"/>
<feOffset dy="0.187823"/>
<feGaussianBlur stdDeviation="0.0939117"/>
<feComposite in2="hardAlpha" operator="out"/>
<feColorMatrix type="matrix" values="0 0 0 0 0 0 0 0 0 0 0 0 0 0 0 0 0 0 0.25 0"/>
<feBlend mode="normal" in2="BackgroundImageFix" result="effect1_dropShadow_5237_6797"/>
<feBlend mode="normal" in="SourceGraphic" in2="effect1_dropShadow_5237_6797" result="shape"/>
</filter>
<clipPath id="clip0_5237_6797">
<rect width="4.50776" height="4.50776" fill="white" transform="translate(12.2056 18.8889)"/>
</clipPath>
<clipPath id="clip1_5237_6797">
<rect width="4.50776" height="4.50776" fill="white" transform="translate(23.2871 18.8889)"/>
</clipPath>
</defs>
</svg>
