<svg width="30" height="30" viewBox="0 0 30 30" fill="none" xmlns="http://www.w3.org/2000/svg">
<rect width="30" height="30" rx="6" fill="#AF52DE"/>
<g clip-path="url(#clip0_5237_7445)">
<path d="M6.6665 15H23.3332M6.6665 15C6.6665 19.6023 10.3975 23.3333 14.9998 23.3333M6.6665 15C6.6665 10.3976 10.3975 6.66663 14.9998 6.66663M23.3332 15C23.3332 19.6023 19.6022 23.3333 14.9998 23.3333M23.3332 15C23.3332 10.3976 19.6022 6.66663 14.9998 6.66663M14.9998 6.66663C17.0842 8.94859 18.2688 11.91 18.3332 15C18.2688 18.0899 17.0842 21.0513 14.9998 23.3333M14.9998 6.66663C12.9154 8.94859 11.7309 11.91 11.6665 15C11.7309 18.0899 12.9154 21.0513 14.9998 23.3333" stroke="white" stroke-width="2" stroke-linecap="round" stroke-linejoin="round"/>
</g>
<defs>
<clipPath id="clip0_5237_7445">
<rect width="20" height="20" fill="white" transform="translate(5 5)"/>
</clipPath>
</defs>
</svg>
