<svg width="18" height="18" viewBox="0 0 18 18" fill="none" xmlns="http://www.w3.org/2000/svg">
<path d="M2.99999 0H5.24999C6.90683 0 8.24998 1.34314 8.24998 2.99999V5.24999C8.24998 6.90683 6.90683 8.24998 5.24999 8.24998H2.99999C1.34314 8.25001 0 6.90687 0 5.24999V2.99999C0 1.34314 1.34314 0 2.99999 0Z" fill="#2C2C2E"/>
<path d="M2.99999 9.74999H5.24999C6.90683 9.74999 8.24998 11.0931 8.24998 12.75V15C8.24998 16.6568 6.90683 18 5.24999 18H2.99999C1.34314 18 0 16.6569 0 15V12.75C0 11.0931 1.34314 9.74999 2.99999 9.74999Z" fill="#2C2C2E"/>
<path d="M12.75 9.74999H15C16.6569 9.74999 18 11.0931 18 12.75V15C18 16.6569 16.6569 18 15 18H12.75C11.0932 18 9.75002 16.6569 9.75002 15V12.75C9.74999 11.0931 11.0931 9.74999 12.75 9.74999Z" fill="#2C2C2E"/>
<path d="M10.5 5.24999H12.75V7.49999C12.75 7.9142 13.0858 8.24998 13.5 8.24998C13.9142 8.24998 14.25 7.9142 14.25 7.49999V5.24999H16.5C16.9142 5.24999 17.25 4.91421 17.25 4.5C17.25 4.08579 16.9142 3.75001 16.5 3.75001H14.25V1.50001C14.25 1.0858 13.9142 0.750023 13.5 0.750023C13.0858 0.750023 12.75 1.0858 12.75 1.50001V3.75001H10.5C10.0858 3.75001 9.75002 4.08579 9.75002 4.5C9.75002 4.91421 10.0858 5.24999 10.5 5.24999Z" fill="#2C2C2E"/>
</svg>
