<svg width="22" height="20" viewBox="0 0 22 20" fill="none" xmlns="http://www.w3.org/2000/svg">
<path d="M3.5708 19.9097C1.35449 19.9097 0.192383 18.7642 0.192383 16.5562V3.48242C0.192383 1.28271 1.35449 0.137207 3.5708 0.137207H18.4209C20.6455 0.137207 21.7993 1.29102 21.7993 3.48242V16.5562C21.7993 18.7559 20.6455 19.9097 18.4209 19.9097H3.5708ZM3.5542 18.0835H18.4292C19.417 18.0835 19.9731 17.5688 19.9731 16.5396V6.75293C19.9731 5.72363 19.417 5.20068 18.4292 5.20068H3.5542C2.55811 5.20068 2.01855 5.72363 2.01855 6.75293V16.5396C2.01855 17.5688 2.55811 18.0835 3.5542 18.0835ZM8.9082 8.91943C8.54297 8.91943 8.43506 8.81982 8.43506 8.46289V7.83203C8.43506 7.4751 8.54297 7.37549 8.9082 7.37549H9.53906C9.896 7.37549 10.0122 7.4751 10.0122 7.83203V8.46289C10.0122 8.81982 9.896 8.91943 9.53906 8.91943H8.9082ZM12.4609 8.91943C12.0957 8.91943 11.9795 8.81982 11.9795 8.46289V7.83203C11.9795 7.4751 12.0957 7.37549 12.4609 7.37549H13.0835C13.4487 7.37549 13.5566 7.4751 13.5566 7.83203V8.46289C13.5566 8.81982 13.4487 8.91943 13.0835 8.91943H12.4609ZM16.0054 8.91943C15.6484 8.91943 15.5322 8.81982 15.5322 8.46289V7.83203C15.5322 7.4751 15.6484 7.37549 16.0054 7.37549H16.6362C17.0015 7.37549 17.1094 7.4751 17.1094 7.83203V8.46289C17.1094 8.81982 17.0015 8.91943 16.6362 8.91943H16.0054ZM5.35547 12.4224C4.99023 12.4224 4.88232 12.3145 4.88232 11.9575V11.3267C4.88232 10.9697 4.99023 10.8701 5.35547 10.8701H5.98633C6.34326 10.8701 6.45947 10.9697 6.45947 11.3267V11.9575C6.45947 12.3145 6.34326 12.4224 5.98633 12.4224H5.35547ZM8.9082 12.4224C8.54297 12.4224 8.43506 12.3145 8.43506 11.9575V11.3267C8.43506 10.9697 8.54297 10.8701 8.9082 10.8701H9.53906C9.896 10.8701 10.0122 10.9697 10.0122 11.3267V11.9575C10.0122 12.3145 9.896 12.4224 9.53906 12.4224H8.9082ZM12.4609 12.4224C12.0957 12.4224 11.9795 12.3145 11.9795 11.9575V11.3267C11.9795 10.9697 12.0957 10.8701 12.4609 10.8701H13.0835C13.4487 10.8701 13.5566 10.9697 13.5566 11.3267V11.9575C13.5566 12.3145 13.4487 12.4224 13.0835 12.4224H12.4609ZM16.0054 12.4224C15.6484 12.4224 15.5322 12.3145 15.5322 11.9575V11.3267C15.5322 10.9697 15.6484 10.8701 16.0054 10.8701H16.6362C17.0015 10.8701 17.1094 10.9697 17.1094 11.3267V11.9575C17.1094 12.3145 17.0015 12.4224 16.6362 12.4224H16.0054ZM5.35547 15.917C4.99023 15.917 4.88232 15.8091 4.88232 15.4521V14.8296C4.88232 14.4644 4.99023 14.3647 5.35547 14.3647H5.98633C6.34326 14.3647 6.45947 14.4644 6.45947 14.8296V15.4521C6.45947 15.8091 6.34326 15.917 5.98633 15.917H5.35547ZM8.9082 15.917C8.54297 15.917 8.43506 15.8091 8.43506 15.4521V14.8296C8.43506 14.4644 8.54297 14.3647 8.9082 14.3647H9.53906C9.896 14.3647 10.0122 14.4644 10.0122 14.8296V15.4521C10.0122 15.8091 9.896 15.917 9.53906 15.917H8.9082ZM12.4609 15.917C12.0957 15.917 11.9795 15.8091 11.9795 15.4521V14.8296C11.9795 14.4644 12.0957 14.3647 12.4609 14.3647H13.0835C13.4487 14.3647 13.5566 14.4644 13.5566 14.8296V15.4521C13.5566 15.8091 13.4487 15.917 13.0835 15.917H12.4609Z" fill="#007AFF"/>
</svg>
