<svg width="20" height="20" viewBox="0 0 20 20" fill="none" xmlns="http://www.w3.org/2000/svg">
<path d="M9 15C9 15.93 9 16.395 9.10222 16.7765C9.37962 17.8117 10.1883 18.6204 11.2235 18.8978C11.605 19 12.07 19 13 19H14.2C15.8802 19 16.7202 19 17.362 18.673C17.9265 18.3854 18.3854 17.9265 18.673 17.362C19 16.7202 19 15.8802 19 14.2V5.8C19 4.11984 19 3.27976 18.673 2.63803C18.3854 2.07354 17.9265 1.6146 17.362 1.32698C16.7202 1 15.8802 1 14.2 1H13C12.07 1 11.605 1 11.2235 1.10222C10.1883 1.37962 9.37962 2.18827 9.10222 3.22354C9 3.60504 9 4.07003 9 5M5 6L1 10M1 10L5 14M1 10H13" stroke="#1B1D31" stroke-width="1.8" stroke-linecap="round" stroke-linejoin="round"/>
</svg>
