<svg width="18" height="18" viewBox="0 0 18 18" fill="none" xmlns="http://www.w3.org/2000/svg">
<path d="M9 18C13.9226 18 18 13.9313 18 9C18 4.07744 13.9226 0 8.99129 0C4.06873 0 0 4.07744 0 9C0 13.9313 4.07744 18 9 18ZM6.85673 5.75024C6.85673 4.56534 7.8151 3.60697 9 3.60697C10.1849 3.60697 11.152 4.56534 11.152 5.75024C11.152 6.6999 10.5421 7.49274 9.697 7.77154V12.1713C9.697 13.4172 9.43562 14.5847 9 14.5847C8.56438 14.5847 8.29429 13.3911 8.29429 12.1713V7.76283C7.4666 7.48403 6.85673 6.69119 6.85673 5.75024ZM7.78896 5.18393C7.78896 5.54985 8.11133 5.87222 8.46854 5.87222C8.84317 5.87222 9.14811 5.54985 9.15683 5.18393C9.15683 4.81801 8.84317 4.49564 8.46854 4.49564C8.11133 4.49564 7.78896 4.81801 7.78896 5.18393Z" fill="#1C1C1E"/>
</svg>
