<svg width="19" height="17" viewBox="0 0 19 17" fill="none" xmlns="http://www.w3.org/2000/svg">
<path d="M3.86762 16.5885C4.81377 16.5885 7.07055 15.6036 8.48201 14.6109C8.62936 14.5024 8.75345 14.4636 8.87753 14.4636C8.97835 14.4713 9.07141 14.4791 9.15672 14.4791C14.7483 14.4713 18.75 11.4235 18.75 7.23567C18.75 3.2262 14.7405 0 9.74612 0C4.75172 0 0.75 3.2262 0.75 7.23567C0.75 9.73287 2.25452 11.9664 4.79825 13.3391C4.93785 13.4244 4.97663 13.5407 4.90683 13.6803C4.45702 14.4326 3.70476 15.2701 3.39455 15.6657C3.04556 16.1077 3.2472 16.5885 3.86762 16.5885Z" fill="#1C1C1E"/>
</svg>
