<svg width="17" height="16" viewBox="0 0 17 16" fill="none" xmlns="http://www.w3.org/2000/svg">
<path d="M4.89746 11.5734C7.39218 14.0739 10.4281 16 12.9059 16C14.0137 16 14.9863 15.6114 15.7643 14.7497C16.2209 14.2429 16.5 13.66 16.5 13.0771C16.5 12.6294 16.3224 12.1901 15.8911 11.886L13.2949 10.0444C12.8806 9.75713 12.5423 9.62196 12.2378 9.62196C11.8404 9.62196 11.4852 9.84161 11.0962 10.2302L10.4873 10.8384C10.3858 10.9314 10.2674 10.9736 10.1575 10.9736C10.0222 10.9736 9.89535 10.9229 9.81078 10.8722C9.27801 10.585 8.36469 9.80781 7.51903 8.96304C6.67336 8.11827 5.88689 7.21436 5.60782 6.67371C5.55708 6.58078 5.5148 6.46251 5.5148 6.32735C5.5148 6.22598 5.54863 6.10771 5.64165 6.00634L6.25053 5.38965C6.63108 4.99261 6.85941 4.64625 6.85941 4.24921C6.85941 3.93664 6.7241 3.59873 6.43658 3.19324L4.60148 0.625132C4.28858 0.18585 3.84884 0 3.36681 0C2.79175 0 2.2167 0.253432 1.71776 0.734953C0.872093 1.52904 0.5 2.51742 0.5 3.60718C0.5 6.08237 2.40275 9.08131 4.89746 11.5734Z" fill="white"/>
</svg>
