<svg width="24" height="16" viewBox="0 0 24 16" fill="none" xmlns="http://www.w3.org/2000/svg">
  <path d="M12 15.0708C5.43408 15.0708 0.744141 9.69189 0.744141 8.01514C0.744141 6.33008 5.43408 0.959473 12 0.959473C18.6406 0.959473 23.2476 6.33008 23.2476 8.01514C23.2476 9.69189 18.6489 15.0708 12 15.0708ZM12 12.6387C14.5649 12.6387 16.6401 10.5386 16.6401 8.01514C16.6401 5.42529 14.5649 3.3916 12 3.3916C9.41016 3.3916 7.34326 5.42529 7.35156 8.01514C7.35986 10.5386 9.41016 12.6387 12 12.6387ZM12 9.68359C11.0703 9.68359 10.3066 8.92822 10.3066 8.01514C10.3066 7.09375 11.0703 6.33838 12 6.33838C12.9214 6.33838 13.6851 7.09375 13.6851 8.01514C13.6851 8.92822 12.9214 9.68359 12 9.68359Z" fill="#3C3C43" fill-opacity="0.6"/>
  <line x1="3" y1="2" x2="21" y2="14" stroke="#3C3C43" stroke-opacity="0.6" stroke-width="2"/>
</svg>
