<svg width="12" height="8" viewBox="0 0 12 8" fill="none" xmlns="http://www.w3.org/2000/svg">
<path d="M6.00684 0.650391C6.29736 0.650391 6.53809 0.75 6.76221 0.982422L11.6846 5.96289C11.8672 6.14551 11.9585 6.36963 11.9585 6.62695C11.9585 7.1665 11.5352 7.59814 11.0039 7.59814C10.7383 7.59814 10.4976 7.48193 10.3066 7.29102L6.00684 2.93311L1.70703 7.29102C1.51611 7.48193 1.27539 7.59814 1.00977 7.59814C0.478516 7.59814 0.0551758 7.1665 0.0551758 6.62695C0.0551758 6.36133 0.146484 6.14551 0.329102 5.96289L5.25146 0.982422C5.47559 0.758301 5.71631 0.650391 6.00684 0.650391Z" fill="#3C3C43" fill-opacity="0.3"/>
</svg>
