<svg width="8" height="12" viewBox="0 0 8 12" fill="none" xmlns="http://www.w3.org/2000/svg">
<path d="M7.34961 5.99316C7.34961 5.70264 7.25 5.46191 7.01758 5.23779L2.03711 0.31543C1.85449 0.132812 1.63037 0.0415039 1.37305 0.0415039C0.833496 0.0415039 0.401855 0.464844 0.401855 0.996094C0.401855 1.26172 0.518066 1.50244 0.708984 1.69336L5.06689 5.99316L0.708984 10.293C0.518066 10.4839 0.401855 10.7246 0.401855 10.9902C0.401855 11.5215 0.833496 11.9448 1.37305 11.9448C1.63867 11.9448 1.85449 11.8535 2.03711 11.6709L7.01758 6.74854C7.2417 6.52441 7.34961 6.28369 7.34961 5.99316Z" fill="#3C3C43" fill-opacity="0.3"/>
</svg>
